<?xml version="1.0" standalone="no"?>
<!DOCTYPE svg PUBLIC "-//W3C//DTD SVG 20010904//EN"
 "http://www.w3.org/TR/2001/REC-SVG-20010904/DTD/svg10.dtd">
<svg version="1.0" xmlns="http://www.w3.org/2000/svg"
 width="750.000000pt" height="750.000000pt" viewBox="0 0 750.000000 750.000000"
 preserveAspectRatio="xMidYMid meet">

<g transform="translate(0.000000,750.000000) scale(0.100000,-0.100000)"
fill="#000000" stroke="none">
<path d="M590 6706 c0 -7 7 -19 15 -26 8 -7 15 -19 15 -26 0 -8 4 -14 9 -14 5
0 13 -10 17 -22 3 -12 13 -28 20 -36 8 -7 14 -20 14 -28 0 -8 3 -14 8 -14 4 0
16 -17 27 -37 11 -21 26 -44 32 -51 7 -7 13 -18 13 -24 0 -5 14 -29 30 -52 57
-79 71 -76 -372 -76 l-390 0 22 -35 c12 -19 28 -48 36 -65 9 -16 20 -30 25
-30 5 0 9 -7 9 -15 0 -16 37 -74 55 -87 6 -4 6 -8 1 -8 -5 0 -2 -8 6 -17 9
-10 19 -28 22 -40 4 -13 12 -23 17 -23 5 0 9 -4 9 -10 0 -5 18 -39 40 -75 22
-36 40 -69 40 -74 0 -5 6 -16 12 -23 17 -19 36 -48 48 -75 5 -13 14 -23 20
-23 5 0 10 -6 10 -14 0 -18 32 -76 43 -76 4 0 7 -8 7 -19 0 -10 7 -24 15 -31
8 -7 15 -19 15 -26 0 -8 4 -14 8 -14 5 0 19 -21 32 -47 13 -27 26 -50 29 -53
3 -3 17 -25 30 -50 14 -25 27 -47 30 -50 6 -5 24 -37 58 -100 10 -19 21 -37
24 -40 3 -3 9 -12 12 -20 4 -8 16 -28 26 -45 11 -16 29 -48 41 -70 12 -22 25
-42 29 -45 3 -3 15 -21 25 -40 10 -19 26 -48 35 -65 9 -16 22 -35 29 -43 6 -7
12 -20 12 -28 0 -8 4 -14 9 -14 5 0 14 -12 21 -27 16 -40 51 -102 83 -148 15
-22 27 -45 27 -52 0 -7 4 -13 8 -13 5 0 18 -19 31 -42 12 -24 26 -50 31 -58
40 -64 91 -153 93 -162 1 -6 12 -22 25 -36 12 -14 25 -36 28 -49 4 -13 10 -23
15 -23 5 0 9 -4 9 -9 0 -13 99 -179 110 -186 6 -4 10 -15 10 -26 0 -10 4 -19
8 -19 5 0 14 -12 21 -27 7 -16 28 -51 47 -80 19 -28 34 -59 34 -67 0 -9 4 -16
8 -16 5 0 19 -20 31 -45 12 -25 27 -45 32 -45 5 0 9 -9 9 -20 0 -11 7 -23 15
-26 8 -4 15 -14 15 -24 0 -11 5 -22 11 -25 5 -4 15 -17 20 -28 13 -31 61 -111
69 -117 3 -3 16 -25 29 -50 24 -50 36 -70 66 -115 29 -42 43 -66 55 -95 6 -13
15 -27 19 -30 4 -3 15 -22 24 -42 10 -20 22 -40 27 -43 5 -3 17 -23 27 -43 9
-20 20 -39 23 -42 4 -3 17 -25 31 -50 13 -25 26 -47 29 -50 11 -11 31 -46 41
-72 6 -16 15 -28 20 -28 5 0 9 -9 9 -20 0 -11 4 -20 10 -20 5 0 12 -11 16 -25
3 -14 9 -25 13 -25 4 0 17 -19 30 -42 34 -65 71 -128 102 -176 16 -24 29 -47
29 -53 0 -5 5 -9 10 -9 6 0 10 -9 10 -19 0 -11 5 -23 11 -26 5 -4 14 -17 20
-28 9 -23 30 -58 39 -67 5 -5 27 -43 61 -108 9 -18 29 -48 44 -67 14 -19 23
-35 19 -35 -4 0 0 -8 8 -17 8 -10 24 -36 35 -58 11 -22 38 -67 59 -100 21 -33
48 -76 59 -97 47 -85 99 -173 106 -178 3 -3 9 -15 13 -27 4 -13 12 -23 17 -23
5 0 9 -6 9 -14 0 -7 7 -19 15 -26 8 -7 15 -21 15 -31 0 -11 4 -19 9 -19 5 0
13 -10 17 -22 3 -12 13 -28 20 -36 8 -7 14 -20 14 -28 0 -8 4 -14 9 -14 5 0
11 -8 15 -17 11 -32 64 -117 75 -121 6 -2 11 -12 11 -22 0 -10 3 -20 8 -22 4
-1 15 -19 24 -38 10 -19 29 -53 43 -75 13 -22 29 -49 35 -60 24 -49 83 -114
102 -115 4 0 14 -7 23 -16 20 -20 227 -23 250 -4 20 17 96 59 118 67 9 3 17
12 17 19 0 8 6 14 13 14 8 0 36 25 63 57 27 31 57 65 66 75 10 10 18 23 18 28
0 6 5 10 10 10 6 0 15 11 20 25 5 14 14 25 20 25 5 0 10 7 10 15 0 40 61 2 88
-55 9 -19 19 -37 22 -40 4 -3 31 -45 60 -95 30 -49 57 -92 62 -93 4 -2 8 -10
8 -18 0 -8 7 -14 15 -14 9 0 18 -7 21 -15 4 -8 14 -15 23 -15 10 0 26 -7 37
-15 23 -17 237 -21 257 -5 7 6 37 26 67 46 46 29 140 135 140 157 0 4 12 23
26 44 14 21 30 47 35 58 5 11 18 34 29 50 10 17 26 44 35 62 9 18 23 37 31 44
8 6 14 20 14 31 0 10 7 21 15 24 8 4 15 15 15 25 0 10 4 19 9 19 5 0 18 17 29
38 49 92 57 107 65 110 4 2 7 12 7 22 0 10 4 20 8 22 9 3 94 143 105 171 3 9
11 17 17 17 5 0 10 7 10 16 0 8 11 30 24 47 13 18 27 42 31 55 3 12 11 22 16
22 5 0 9 6 9 14 0 8 6 21 13 28 12 14 51 82 71 125 6 13 14 23 19 23 4 0 7 9
7 20 0 11 4 20 9 20 10 0 15 9 61 97 14 26 31 52 37 56 7 4 13 12 13 17 0 5
18 39 40 75 22 36 40 70 40 76 0 6 6 17 13 24 22 26 32 40 57 88 13 26 28 47
32 47 5 0 8 7 8 15 0 13 55 112 69 125 11 9 31 45 42 73 6 15 14 27 19 27 4 0
10 8 14 18 3 9 19 40 36 67 16 28 34 60 39 72 5 11 15 24 20 28 6 3 11 15 11
26 0 10 3 19 8 19 4 0 18 20 32 45 14 25 28 45 32 45 5 0 8 7 8 14 0 8 12 34
28 58 42 67 50 80 69 118 9 19 29 51 45 71 15 20 28 40 28 44 0 3 20 40 45 81
25 40 45 78 45 84 0 5 4 10 9 10 5 0 11 8 15 18 3 9 10 24 15 32 38 57 91 153
91 165 0 8 4 15 9 15 10 0 22 20 61 98 11 23 25 42 30 42 6 0 10 6 10 14 0 8
6 21 13 28 16 18 36 49 43 68 3 8 10 22 15 30 5 8 12 23 15 33 4 9 10 17 15
17 5 0 9 6 9 14 0 7 7 19 15 26 8 7 15 21 15 31 0 11 4 19 10 19 5 0 17 17 27
38 9 20 29 55 44 77 14 22 41 67 59 100 18 33 38 67 45 75 7 8 30 46 51 85 21
38 44 79 51 90 7 11 15 27 19 35 4 8 17 28 28 45 28 39 43 65 56 95 6 14 23
40 37 58 14 18 22 36 19 39 -3 4 3 12 14 20 11 8 20 23 20 34 0 10 4 19 9 19
5 0 11 8 15 18 3 9 15 31 25 47 11 17 30 49 42 73 13 23 26 42 31 42 4 0 8 9
8 19 0 11 5 23 11 26 5 4 15 17 20 28 5 12 18 36 29 52 11 17 24 39 30 50 12
24 33 58 40 65 3 3 14 21 25 40 10 19 29 53 42 75 12 22 26 47 30 55 8 16 19
31 46 61 14 16 17 39 17 139 0 100 -3 123 -17 139 -31 34 -43 50 -43 58 0 4
-20 26 -44 49 -48 45 -131 89 -182 97 -17 3 -41 10 -52 16 -11 6 -56 11 -100
11 -95 0 -108 9 -84 60 9 19 22 39 29 43 7 4 13 17 13 27 0 11 4 20 9 20 5 0
20 20 32 45 12 25 26 45 31 45 4 0 8 9 8 20 0 11 7 23 15 26 8 4 15 10 15 15
0 5 14 31 30 57 17 27 30 52 30 56 0 3 -1485 6 -3300 6 -2796 0 -3300 -2
-3300 -14z m6434 -89 c16 -12 16 -15 4 -28 -8 -8 -17 -21 -21 -29 -4 -8 -16
-28 -27 -45 -11 -16 -23 -37 -27 -45 -3 -8 -17 -29 -30 -46 -13 -17 -23 -38
-23 -47 0 -10 -6 -17 -12 -17 -7 0 -22 -19 -33 -43 -11 -23 -22 -44 -25 -47
-4 -3 -30 -45 -60 -93 -29 -48 -57 -90 -62 -93 -4 -3 -8 -12 -8 -20 0 -9 -11
-30 -25 -48 -14 -18 -25 -36 -25 -40 0 -3 -13 -25 -30 -48 -16 -22 -30 -45
-30 -51 0 -5 -12 -26 -27 -46 -16 -20 -37 -52 -47 -71 -11 -19 -22 -37 -25
-40 -6 -5 -21 -30 -58 -99 -10 -19 -28 -46 -40 -60 -13 -14 -23 -29 -23 -34 0
-4 -12 -26 -27 -50 -15 -23 -36 -58 -46 -77 -11 -19 -22 -37 -26 -40 -8 -7
-27 -38 -48 -80 -9 -19 -30 -53 -45 -74 -15 -21 -28 -45 -28 -51 0 -7 -7 -15
-15 -19 -8 -3 -15 -12 -15 -20 0 -8 -3 -16 -7 -18 -5 -1 -19 -24 -33 -50 -13
-27 -27 -48 -30 -48 -3 0 -14 -19 -25 -41 -10 -23 -25 -44 -32 -46 -7 -3 -13
-11 -13 -19 0 -14 -55 -109 -75 -130 -5 -6 -19 -27 -30 -47 -11 -20 -23 -37
-27 -37 -5 0 -8 -9 -8 -19 0 -10 -7 -21 -15 -25 -8 -3 -15 -12 -15 -21 0 -15
-6 -25 -37 -60 -7 -7 -13 -18 -13 -23 0 -5 -31 -57 -70 -116 -38 -58 -70 -113
-70 -121 0 -8 -4 -15 -9 -15 -5 0 -20 -20 -32 -45 -12 -25 -26 -45 -31 -45 -4
0 -8 -6 -8 -14 0 -8 -6 -21 -12 -28 -12 -12 -28 -39 -62 -101 -6 -12 -24 -41
-39 -64 -15 -24 -27 -47 -27 -53 0 -5 -4 -10 -9 -10 -5 0 -19 -19 -31 -42 -12
-24 -35 -62 -51 -86 -16 -24 -29 -47 -29 -51 0 -5 -6 -14 -14 -20 -8 -7 -21
-26 -30 -44 -19 -36 -32 -58 -61 -102 -23 -34 -40 -62 -55 -90 -6 -11 -19 -33
-30 -50 -11 -16 -23 -37 -27 -45 -4 -8 -13 -21 -20 -28 -7 -8 -11 -17 -8 -22
3 -4 -1 -10 -8 -13 -6 -3 -21 -22 -32 -43 -10 -22 -36 -64 -55 -94 -20 -31
-39 -62 -44 -70 -9 -19 -54 -92 -113 -186 -41 -63 -129 -212 -135 -226 -4 -10
-12 -18 -18 -18 -5 0 -10 -5 -10 -11 0 -6 -13 -31 -30 -56 -16 -24 -30 -46
-30 -48 0 -3 -17 -31 -37 -62 -21 -32 -46 -73 -56 -92 -10 -19 -25 -41 -33
-48 -8 -8 -14 -19 -14 -25 0 -5 -10 -24 -23 -41 -27 -38 -43 -65 -56 -94 -5
-11 -15 -24 -20 -28 -6 -3 -11 -14 -11 -23 0 -10 -10 -28 -23 -42 -26 -29 -54
-73 -92 -145 -15 -27 -33 -54 -41 -58 -8 -4 -14 -15 -14 -22 0 -24 -26 -17
-46 12 -27 41 -74 136 -74 151 0 6 -4 12 -9 12 -5 0 -18 18 -29 41 l-20 41 29
50 c17 28 47 76 68 107 21 31 40 64 44 74 3 9 11 17 16 17 5 0 12 11 15 25 4
14 11 25 16 25 6 0 10 7 10 15 0 8 5 15 10 15 6 0 10 6 10 13 0 8 14 33 30 55
17 23 30 44 30 46 0 2 16 28 35 58 20 29 38 63 41 75 3 12 12 24 20 27 8 3 14
12 14 20 0 8 6 19 13 23 13 9 26 28 58 91 13 23 26 42 31 42 4 0 8 6 8 13 0 7
7 22 15 32 20 26 125 193 125 199 0 3 20 34 45 70 25 37 45 70 45 74 0 4 11
19 25 34 14 15 25 32 25 39 0 6 14 28 30 49 17 21 30 43 30 49 0 7 11 24 25
39 14 15 25 32 25 39 0 6 6 18 13 25 7 7 16 20 20 28 7 15 26 45 40 64 19 26
95 147 100 159 3 7 27 47 53 88 66 100 73 111 80 132 3 9 10 17 13 17 4 0 18
20 30 45 12 25 27 45 32 45 5 0 9 5 9 11 0 6 13 31 30 56 16 24 30 47 30 50 0
3 11 21 25 39 14 18 25 35 25 37 0 6 65 105 80 124 6 7 10 15 10 19 0 4 11 21
24 38 13 17 26 41 30 54 4 12 12 22 17 22 5 0 9 7 9 15 0 8 4 15 8 15 5 0 19
21 32 48 13 26 29 53 36 59 7 7 26 37 44 65 44 76 50 86 100 163 52 81 66 104
76 125 4 8 16 26 26 39 10 13 15 27 12 32 -3 5 2 9 10 9 9 0 16 9 16 20 0 11
5 20 10 20 6 0 20 20 32 45 12 25 26 45 30 45 4 0 8 9 8 19 0 10 6 21 13 24 6
3 21 22 32 43 23 47 77 128 88 132 4 2 7 11 7 19 0 8 14 32 30 53 17 21 30 42
30 48 0 5 7 12 15 16 8 3 15 14 15 24 0 11 10 30 23 44 21 25 40 55 74 121 31
60 33 67 33 99 0 18 7 42 15 52 21 28 19 115 -5 168 -10 24 -38 62 -62 84
l-43 39 -2650 -4 -2650 -3 -25 48 c-13 27 -27 51 -31 54 -3 3 -12 17 -20 32
-32 62 -94 158 -101 158 -17 0 -7 21 15 30 13 5 1303 9 3133 9 2558 1 3113 -1
3128 -12z m-837 -394 c3 -7 10 -13 16 -13 6 0 21 -10 34 -22 21 -19 23 -30 23
-112 0 -77 -3 -95 -22 -123 l-23 -33 -786 0 c-432 0 -1636 -3 -2675 -7 l-1889
-6 -25 -31 c-23 -28 -25 -38 -25 -138 0 -72 4 -111 13 -120 6 -6 12 -21 12
-31 0 -17 9 -39 41 -97 4 -8 20 -37 34 -65 46 -90 71 -132 96 -166 13 -19 33
-51 44 -71 11 -21 23 -38 26 -38 4 0 10 -11 13 -25 4 -14 11 -25 16 -25 6 0
10 -9 10 -20 0 -11 4 -20 9 -20 5 0 13 -10 17 -22 4 -13 17 -36 29 -53 12 -16
25 -37 29 -45 3 -8 15 -28 26 -45 10 -16 27 -45 36 -63 9 -19 27 -38 38 -42
12 -5 15 -9 8 -9 -10 -1 -10 -6 -1 -23 7 -13 15 -25 18 -28 7 -6 27 -38 41
-65 6 -11 18 -32 28 -46 9 -15 34 -55 55 -90 52 -88 58 -98 90 -147 15 -24 27
-46 27 -49 0 -3 11 -21 25 -39 14 -18 25 -36 25 -39 0 -4 13 -26 28 -49 15
-22 35 -57 45 -76 20 -39 21 -41 95 -152 28 -44 52 -86 52 -93 0 -7 7 -15 15
-19 8 -3 15 -14 15 -25 0 -10 7 -21 15 -25 8 -3 15 -12 15 -21 0 -8 5 -15 10
-15 6 0 10 -7 10 -14 0 -8 14 -35 30 -59 17 -25 30 -50 30 -56 0 -6 4 -11 9
-11 5 0 20 -21 33 -47 13 -27 26 -50 29 -53 4 -3 16 -23 28 -45 12 -22 30 -53
41 -70 11 -16 24 -40 30 -52 5 -13 13 -23 18 -23 4 0 16 -20 26 -45 11 -25 22
-45 25 -45 3 0 12 -12 18 -27 7 -16 28 -52 48 -81 19 -30 35 -58 35 -63 0 -5
4 -9 9 -9 5 0 11 -8 15 -17 3 -10 15 -31 26 -48 11 -16 23 -38 26 -47 4 -10
10 -18 15 -18 5 0 9 -6 9 -13 0 -7 13 -31 30 -53 16 -21 30 -46 30 -55 0 -9 7
-19 15 -23 8 -3 15 -14 15 -25 0 -10 7 -21 15 -25 8 -3 15 -12 15 -21 0 -8 5
-15 10 -15 6 0 10 -8 10 -19 0 -10 7 -24 15 -31 8 -7 15 -19 15 -27 0 -7 7
-16 15 -19 8 -4 15 -11 15 -16 0 -6 12 -29 28 -52 15 -22 34 -54 42 -71 8 -16
25 -43 37 -58 13 -16 23 -34 23 -40 0 -7 16 -34 35 -61 19 -27 35 -55 35 -63
0 -7 4 -13 9 -13 5 0 12 -8 15 -17 13 -35 37 -73 47 -73 5 0 9 -9 9 -19 0 -11
4 -21 8 -23 11 -4 72 -106 72 -119 0 -6 6 -16 13 -23 24 -26 78 -112 97 -153
5 -13 14 -23 20 -23 5 0 10 -8 10 -18 0 -10 5 -23 11 -29 14 -14 36 -52 45
-75 3 -10 10 -18 15 -18 5 0 9 -9 9 -20 0 -11 5 -20 10 -20 6 0 14 -8 17 -17
11 -29 66 -116 91 -145 35 -39 88 -45 148 -18 56 25 86 49 78 61 -3 5 0 9 7 9
12 0 84 70 90 89 2 6 14 12 27 13 18 2 29 -7 53 -47 16 -27 32 -58 35 -67 4
-10 10 -18 14 -18 4 0 15 -18 25 -40 10 -22 24 -45 32 -51 14 -12 19 -109 5
-109 -5 0 -26 -26 -48 -57 -21 -32 -49 -68 -61 -80 -13 -12 -23 -25 -23 -28 0
-6 -43 -49 -95 -93 -14 -13 -37 -27 -51 -32 -13 -5 -24 -14 -24 -20 0 -5 -8
-10 -19 -10 -10 0 -32 -7 -47 -15 -16 -8 -44 -15 -62 -15 -54 0 -162 64 -162
96 0 6 -7 14 -15 18 -8 3 -15 12 -15 21 0 15 -24 59 -45 81 -5 6 -23 37 -40
70 -16 32 -34 64 -40 70 -5 6 -19 27 -30 47 -11 20 -23 37 -27 37 -5 0 -8 8
-8 18 0 10 -5 23 -11 29 -12 12 -21 27 -58 97 -14 25 -28 46 -32 46 -4 0 -10
11 -13 25 -4 14 -11 25 -16 25 -6 0 -10 9 -10 19 0 11 -4 21 -8 23 -8 3 -102
154 -102 164 0 2 -12 23 -27 47 -38 58 -61 97 -79 132 -18 36 -33 61 -58 98
-23 34 -48 79 -73 130 -10 20 -21 37 -25 37 -4 0 -17 21 -29 47 -12 27 -25 50
-29 53 -4 3 -22 32 -40 65 -18 33 -39 67 -46 76 -8 8 -14 19 -14 23 0 4 -11
22 -25 40 -14 18 -25 39 -25 46 0 7 -11 28 -25 46 -14 18 -29 43 -35 56 -10
24 -31 59 -40 68 -3 3 -14 23 -25 45 -11 22 -26 46 -32 53 -7 7 -13 18 -13 23
0 6 -11 25 -24 42 -13 18 -27 42 -31 55 -3 12 -11 22 -16 22 -5 0 -9 4 -9 9 0
5 -17 37 -37 71 -41 66 -86 143 -103 175 -6 11 -19 34 -30 50 -11 17 -24 40
-30 53 -5 12 -13 22 -17 22 -5 0 -16 17 -26 38 -9 20 -21 44 -26 52 -5 8 -12
22 -15 30 -7 19 -27 50 -43 68 -7 7 -13 20 -13 28 0 8 -4 14 -10 14 -5 0 -12
11 -16 25 -3 14 -10 25 -15 25 -5 0 -9 9 -9 20 0 11 -5 20 -11 20 -5 0 -15 14
-20 30 -6 17 -15 30 -20 30 -5 0 -9 9 -9 20 0 11 -4 20 -10 20 -5 0 -10 7 -10
15 0 7 -6 18 -13 22 -6 4 -22 28 -35 53 -12 25 -28 54 -35 65 -7 11 -27 44
-45 74 -19 29 -38 63 -43 75 -13 27 -29 54 -55 91 -11 17 -24 37 -27 45 -4 8
-16 29 -27 45 -11 17 -24 40 -29 52 -5 11 -15 24 -20 28 -6 3 -11 15 -11 25 0
10 -4 20 -9 22 -9 3 -45 63 -83 138 -13 25 -27 48 -31 51 -9 6 -22 29 -52 86
-9 18 -23 37 -31 44 -8 6 -14 20 -14 29 0 10 -4 20 -8 22 -13 5 -102 157 -102
173 0 8 -4 15 -9 15 -5 0 -20 21 -33 46 -12 26 -28 49 -35 51 -7 3 -13 11 -13
19 0 8 -11 32 -25 54 -14 22 -25 44 -25 50 0 6 -7 13 -15 16 -8 4 -15 17 -15
30 0 13 -3 24 -8 24 -4 0 -16 17 -27 37 -11 20 -24 42 -30 48 -10 11 -51 83
-69 122 -6 13 -14 23 -18 23 -5 0 -8 6 -8 13 0 8 -9 24 -20 37 -11 13 -20 28
-20 33 0 6 -10 24 -23 41 -12 17 -31 49 -42 71 -11 22 -23 42 -26 45 -4 3 -17
23 -29 45 -12 22 -30 54 -41 70 -10 17 -23 39 -29 50 -6 11 -24 43 -40 70 -16
28 -34 59 -40 70 -6 11 -19 34 -30 50 -11 17 -23 38 -26 48 -4 9 -10 17 -15
17 -15 0 -10 48 6 54 8 3 540 5 1182 6 642 0 1168 1 1169 3 1 1 818 2 1815 2
1441 0 1813 -3 1816 -12z m957 -10 c39 -5 71 -14 74 -21 2 -7 12 -12 23 -12
33 0 110 -63 149 -124 37 -56 39 -63 37 -131 -2 -59 -6 -78 -27 -106 -14 -19
-34 -52 -45 -74 -11 -22 -23 -42 -26 -45 -4 -3 -17 -25 -30 -49 -13 -24 -29
-51 -34 -60 -48 -75 -64 -104 -90 -155 -17 -32 -36 -61 -42 -63 -7 -3 -13 -13
-13 -23 0 -10 -7 -23 -15 -30 -8 -7 -15 -16 -15 -21 0 -7 -79 -143 -121 -209
-5 -8 -12 -23 -15 -32 -4 -10 -10 -18 -14 -18 -4 0 -18 -22 -31 -50 -13 -27
-26 -50 -30 -50 -3 0 -14 -19 -25 -42 -10 -24 -24 -49 -31 -56 -7 -7 -13 -20
-13 -28 0 -8 -3 -14 -8 -14 -4 0 -16 -17 -27 -37 -38 -72 -120 -208 -127 -211
-5 -2 -8 -10 -8 -18 0 -8 -3 -14 -8 -14 -4 0 -12 -9 -17 -20 -6 -10 -21 -41
-34 -67 -14 -26 -27 -50 -30 -53 -3 -3 -15 -23 -26 -44 -11 -22 -24 -44 -30
-50 -15 -16 -54 -87 -66 -118 -6 -16 -15 -28 -20 -28 -5 0 -9 -6 -9 -14 0 -7
-7 -19 -15 -26 -8 -7 -15 -21 -15 -31 0 -11 -4 -19 -9 -19 -6 0 -16 -11 -23
-24 -7 -14 -24 -45 -37 -70 -14 -25 -28 -46 -33 -46 -4 0 -8 -8 -8 -19 0 -10
-6 -24 -13 -30 -8 -6 -22 -29 -32 -51 -10 -22 -22 -40 -27 -40 -4 0 -8 -7 -8
-16 0 -9 -13 -33 -30 -54 -16 -21 -30 -42 -30 -48 0 -5 -7 -15 -15 -22 -8 -7
-15 -21 -15 -31 0 -11 -4 -19 -10 -19 -5 0 -10 -8 -10 -18 0 -10 -9 -25 -20
-35 -12 -10 -18 -21 -16 -26 3 -5 -1 -14 -9 -21 -8 -7 -15 -18 -15 -25 0 -7
-7 -15 -15 -19 -8 -3 -15 -10 -15 -16 0 -5 -18 -39 -40 -75 -22 -36 -40 -68
-40 -72 0 -3 -6 -14 -14 -22 -7 -9 -28 -43 -46 -76 -18 -33 -42 -73 -52 -90
-10 -16 -21 -37 -25 -45 -3 -8 -10 -17 -13 -20 -4 -3 -18 -25 -31 -50 -26 -48
-51 -89 -80 -132 -11 -15 -19 -34 -19 -43 0 -8 -3 -15 -8 -15 -4 0 -19 -21
-32 -47 -14 -27 -28 -50 -32 -51 -5 -2 -8 -10 -8 -17 0 -8 -6 -18 -12 -22 -7
-4 -22 -26 -33 -48 -10 -22 -28 -53 -38 -68 -11 -16 -29 -47 -42 -70 -35 -67
-49 -90 -62 -105 -7 -7 -13 -20 -13 -28 0 -8 -4 -14 -8 -14 -4 0 -19 -22 -33
-50 -13 -27 -27 -50 -30 -50 -4 0 -10 -11 -13 -25 -4 -14 -11 -25 -16 -25 -6
0 -10 -6 -10 -14 0 -8 -6 -21 -13 -28 -7 -7 -21 -29 -31 -48 -23 -47 -50 -94
-56 -100 -7 -7 -24 -36 -50 -85 -12 -22 -40 -66 -61 -99 -21 -32 -39 -62 -39
-67 0 -5 -18 -38 -40 -74 -22 -36 -40 -70 -40 -75 0 -6 -4 -10 -9 -10 -10 0
-17 -11 -61 -97 -13 -26 -33 -61 -45 -78 -11 -16 -29 -46 -40 -67 -50 -92
-110 -188 -117 -188 -4 0 -8 -8 -8 -19 0 -10 -7 -24 -15 -31 -8 -7 -15 -17
-15 -22 0 -9 -56 -67 -101 -103 -53 -43 -165 -59 -225 -32 -55 25 -104 59
-104 73 0 8 -7 17 -15 20 -8 4 -15 13 -15 20 0 8 -9 28 -20 44 -11 17 -29 43
-40 60 -11 16 -20 33 -20 38 0 5 -7 15 -15 22 -8 7 -15 20 -15 30 0 10 -6 20
-13 23 -7 2 -22 23 -32 46 -11 22 -23 41 -27 41 -5 0 -8 5 -8 11 0 6 -12 29
-27 52 -50 76 -54 82 -59 100 -4 9 -10 17 -15 17 -5 0 -15 15 -23 32 -15 34
-47 89 -56 98 -13 13 -80 129 -80 139 0 6 -3 11 -8 11 -4 0 -16 17 -27 38 -11
20 -26 43 -32 50 -7 7 -13 20 -13 28 0 8 -3 14 -8 14 -4 0 -12 9 -17 20 -6 11
-38 65 -72 121 -35 55 -63 104 -63 110 0 5 -4 9 -9 9 -5 0 -14 13 -20 30 -5
17 -15 30 -20 30 -6 0 -11 6 -11 14 0 8 -6 21 -13 28 -7 7 -16 20 -20 28 -4 8
-16 29 -27 45 -11 17 -23 37 -26 45 -4 8 -17 29 -28 45 -12 17 -30 47 -41 68
-11 20 -23 37 -27 37 -5 0 -8 6 -8 14 0 7 -7 19 -15 26 -8 7 -15 20 -15 30 0
10 -7 20 -15 24 -8 3 -15 14 -15 25 0 11 -4 21 -8 23 -4 2 -25 30 -45 63 -21
33 -42 67 -47 75 -5 8 -31 51 -57 95 -26 44 -49 82 -52 85 -3 3 -15 23 -26 45
-11 22 -22 42 -25 45 -15 15 -50 71 -50 80 0 5 -4 10 -10 10 -5 0 -10 9 -10
19 0 11 -3 21 -8 23 -8 3 -137 205 -162 253 -6 11 -24 40 -40 65 -16 25 -35
56 -42 70 -7 14 -29 51 -50 83 -21 32 -38 63 -38 68 0 5 -4 9 -10 9 -5 0 -10
6 -10 14 0 7 -7 19 -15 26 -8 7 -15 21 -15 31 0 11 -5 19 -10 19 -6 0 -15 11
-20 25 -5 14 -14 25 -20 25 -5 0 -10 9 -10 20 0 11 -4 20 -10 20 -5 0 -19 19
-30 43 -11 23 -29 56 -40 72 -10 17 -26 44 -35 62 -9 18 -23 37 -31 44 -8 6
-14 17 -14 24 0 6 -11 25 -25 41 -14 16 -28 39 -31 52 -4 12 -9 22 -13 22 -3
0 -15 17 -26 38 -11 20 -32 56 -47 79 -15 23 -28 46 -28 51 0 5 -6 15 -14 21
-8 7 -22 26 -31 44 -9 18 -25 46 -35 62 -11 17 -24 40 -30 53 -5 12 -14 22
-20 22 -5 0 -10 8 -10 19 0 10 -7 24 -15 31 -8 7 -15 19 -15 26 0 8 -4 14 -8
14 -5 0 -19 19 -31 43 -12 23 -44 76 -71 117 -27 41 -57 91 -67 110 -9 19 -29
51 -45 71 -15 20 -28 40 -28 44 0 5 -11 23 -25 41 -14 18 -25 37 -25 42 0 5
-12 27 -28 48 -15 22 -36 55 -46 74 -11 19 -22 37 -25 40 -6 5 -11 13 -53 89
-11 20 -33 55 -49 79 -16 24 -29 45 -29 48 0 3 -18 32 -40 65 -22 33 -40 65
-40 70 0 5 -4 9 -10 9 -5 0 -10 14 -10 30 0 35 -17 32 190 30 154 -1 180 -9
180 -52 0 -10 7 -21 15 -24 8 -4 15 -11 15 -16 0 -6 18 -37 40 -69 22 -32 40
-63 40 -68 0 -6 6 -14 13 -18 6 -4 21 -26 32 -48 11 -22 22 -42 25 -45 19 -19
70 -101 70 -113 0 -8 7 -17 15 -21 8 -3 15 -15 15 -26 0 -11 4 -20 9 -20 5 0
27 -28 47 -62 21 -35 42 -64 46 -66 4 -2 8 -10 8 -17 0 -13 56 -104 71 -115 4
-3 17 -23 29 -45 12 -22 30 -53 41 -70 10 -16 23 -40 29 -52 5 -13 14 -23 20
-23 5 0 10 -5 10 -10 0 -6 18 -39 40 -74 22 -35 40 -68 40 -74 0 -6 3 -12 8
-14 6 -3 60 -80 72 -103 3 -5 17 -29 33 -52 15 -24 27 -47 27 -53 0 -5 4 -10
8 -10 5 0 19 -20 31 -45 12 -25 27 -45 32 -45 5 0 9 -9 9 -20 0 -11 3 -20 8
-20 4 0 18 -20 32 -45 14 -25 28 -45 32 -45 5 0 8 -5 8 -10 0 -6 12 -29 27
-53 42 -64 47 -72 67 -108 10 -19 25 -42 33 -51 17 -19 47 -70 67 -113 8 -16
23 -39 33 -50 24 -25 83 -122 83 -135 0 -6 3 -10 8 -10 4 0 16 -17 27 -37 10
-21 26 -47 35 -58 9 -11 36 -54 60 -95 24 -41 54 -89 67 -106 13 -17 23 -36
23 -43 0 -6 7 -14 15 -17 8 -4 15 -12 15 -19 0 -7 18 -40 40 -73 22 -33 40
-64 40 -70 0 -6 4 -12 8 -14 8 -3 62 -91 74 -120 4 -10 12 -18 18 -18 5 0 10
-5 10 -11 0 -6 14 -31 30 -56 17 -24 30 -46 30 -48 0 -2 20 -33 45 -69 25 -37
45 -71 45 -76 0 -6 5 -10 10 -10 6 0 10 -5 10 -10 0 -6 17 -37 37 -68 21 -31
41 -64 46 -72 4 -8 16 -28 27 -45 11 -16 24 -39 30 -50 6 -11 18 -32 28 -46 9
-15 43 -69 75 -120 32 -52 67 -106 78 -121 10 -15 19 -32 19 -38 0 -5 5 -10
10 -10 6 0 10 -7 10 -15 0 -8 4 -15 9 -15 5 0 13 -10 16 -22 4 -13 17 -37 30
-53 12 -17 32 -51 44 -77 11 -26 25 -50 31 -53 5 -3 10 -13 10 -21 0 -9 20
-47 45 -85 25 -38 45 -74 45 -79 0 -6 5 -10 10 -10 6 0 10 -9 10 -20 0 -11 7
-23 15 -26 8 -4 15 -12 15 -20 0 -8 4 -14 10 -14 5 0 17 -14 25 -30 18 -35 97
-116 139 -144 20 -12 49 -19 92 -20 64 -1 86 10 107 54 4 8 19 33 32 55 14 22
32 54 41 70 8 17 23 44 34 60 11 17 31 50 45 75 14 25 34 59 45 75 10 17 27
46 37 65 9 19 20 37 24 40 4 3 17 23 29 45 12 22 30 54 41 70 10 17 24 42 30
58 6 15 14 27 19 27 4 0 11 8 14 18 3 9 12 26 19 37 6 11 34 58 62 105 27 47
55 94 62 105 7 11 15 27 19 35 4 8 17 28 28 45 26 37 35 51 65 109 14 25 28
46 33 46 4 0 8 5 8 11 0 7 14 34 30 61 17 26 30 55 30 63 0 8 6 15 13 15 6 0
27 32 46 70 19 39 38 70 42 70 4 0 10 11 13 25 4 14 11 25 16 25 6 0 10 6 10
14 0 7 6 19 14 25 8 7 17 24 21 39 4 15 14 35 22 45 20 21 39 53 54 90 6 15
14 27 18 27 3 0 12 14 20 31 7 17 33 61 57 98 24 36 44 72 44 79 0 6 4 12 9
12 5 0 14 12 20 28 10 26 30 61 41 72 9 9 30 45 41 70 5 13 13 27 17 30 4 3
14 19 23 35 27 51 44 80 51 85 4 3 12 17 18 30 5 14 19 39 30 55 11 17 24 39
29 50 5 11 20 36 33 55 12 19 32 52 43 73 11 20 23 37 27 37 5 0 8 7 8 16 0 8
11 30 25 48 14 18 25 36 25 40 0 5 14 28 30 53 17 24 30 48 30 54 0 5 7 12 15
15 8 4 15 12 15 20 0 8 10 31 23 52 13 20 27 44 30 52 4 8 16 29 27 45 11 17
24 40 29 52 5 11 15 24 20 28 6 3 11 13 11 21 0 8 9 25 21 37 11 12 25 31 30
42 5 11 18 34 29 50 10 17 28 49 39 73 11 23 27 49 36 58 8 8 15 22 15 30 0 8
4 14 9 14 5 0 11 8 15 18 3 9 19 40 36 67 16 28 35 60 41 73 7 12 16 22 21 22
4 0 8 6 8 14 0 7 7 19 15 26 8 7 15 23 15 35 0 13 7 25 15 29 8 3 15 12 15 21
0 8 4 15 8 15 5 0 19 23 32 50 13 28 26 50 30 50 3 0 16 19 28 43 13 23 36 65
52 92 16 28 34 60 39 73 6 12 15 22 21 22 5 0 10 8 10 19 0 10 7 24 15 31 11
9 15 33 15 90 0 57 -4 81 -15 90 -8 7 -15 18 -15 24 0 23 -47 57 -86 63 -80
12 -89 29 -51 91 13 20 26 45 30 55 3 9 11 17 17 17 5 0 10 4 10 10 0 13 62
114 72 118 4 2 8 9 8 16 0 35 86 41 264 19z m-6046 -378 c14 -4 22 -13 22 -25
0 -11 4 -20 10 -20 5 0 12 -11 16 -25 3 -14 9 -25 13 -25 4 0 18 -19 31 -42
12 -24 33 -57 46 -75 13 -17 24 -38 24 -46 0 -9 4 -17 8 -19 10 -4 102 -155
102 -168 0 -5 6 -13 13 -17 13 -9 26 -28 58 -90 13 -24 26 -43 31 -43 4 0 8
-9 8 -20 0 -11 5 -20 10 -20 6 0 14 -8 18 -18 6 -17 99 -170 145 -240 9 -15
20 -35 23 -44 4 -10 10 -18 15 -18 5 0 9 -4 9 -10 0 -12 59 -109 77 -128 7 -7
13 -20 13 -28 0 -8 5 -14 10 -14 6 0 10 -6 10 -14 0 -8 6 -21 13 -28 7 -7 16
-20 20 -28 4 -8 16 -28 27 -45 11 -16 29 -46 40 -65 11 -19 29 -48 40 -65 11
-16 24 -39 29 -50 5 -11 21 -37 35 -58 14 -21 26 -42 26 -47 0 -6 4 -10 8 -10
5 0 19 -21 33 -46 38 -71 47 -86 56 -93 4 -3 23 -35 42 -71 18 -36 44 -79 57
-97 13 -17 24 -36 24 -42 0 -6 5 -11 10 -11 6 0 10 -7 10 -15 0 -8 4 -15 9
-15 5 0 21 -24 35 -52 15 -29 36 -66 46 -83 11 -16 23 -37 27 -45 4 -8 11 -19
15 -25 23 -28 68 -101 68 -111 0 -7 7 -14 15 -18 8 -3 15 -14 15 -25 0 -10 7
-22 16 -25 8 -3 13 -10 9 -15 -3 -5 -1 -12 4 -15 4 -3 28 -38 51 -78 24 -40
47 -74 52 -76 4 -2 8 -7 8 -12 0 -5 32 -60 70 -124 39 -63 70 -119 70 -125 0
-5 3 -11 8 -13 13 -6 72 -98 72 -113 0 -8 4 -15 10 -15 5 0 17 -17 27 -37 10
-21 44 -78 76 -126 31 -48 57 -92 57 -97 0 -6 5 -10 10 -10 6 0 10 -6 10 -13
0 -8 14 -33 30 -55 17 -23 30 -47 30 -52 0 -6 5 -16 11 -23 18 -21 189 -300
189 -308 0 -5 5 -9 10 -9 6 0 10 -5 10 -11 0 -6 13 -31 30 -56 16 -24 30 -50
30 -58 0 -8 6 -12 13 -9 8 3 14 -1 14 -8 0 -7 12 -32 26 -55 15 -24 27 -47 27
-52 0 -6 11 -22 25 -37 14 -15 25 -32 25 -39 0 -7 9 -22 20 -35 11 -13 20 -29
20 -37 0 -7 5 -13 10 -13 6 0 10 -6 10 -14 0 -7 7 -19 15 -26 20 -16 19 -41
-2 -69 -70 -91 -116 -139 -153 -159 -40 -21 -43 -21 -71 -5 -16 10 -29 23 -29
30 0 8 -6 16 -13 19 -8 3 -14 10 -14 17 0 7 -12 31 -26 54 -15 24 -27 47 -27
52 0 6 -6 14 -13 18 -7 4 -21 25 -32 46 -11 20 -23 37 -27 37 -5 0 -8 6 -8 13
0 8 -13 33 -30 55 -16 23 -30 49 -30 57 0 8 -4 15 -9 15 -5 0 -13 10 -17 22
-3 12 -13 28 -20 36 -8 7 -14 20 -14 28 0 8 -4 14 -8 14 -5 0 -19 21 -33 46
-13 25 -30 56 -37 70 -7 13 -17 24 -23 24 -5 0 -9 4 -9 10 0 5 -18 39 -40 75
-22 36 -40 72 -40 80 0 8 -4 15 -10 15 -5 0 -19 17 -30 38 -11 20 -29 51 -40
67 -11 17 -24 40 -29 52 -5 11 -15 24 -20 28 -6 3 -11 15 -11 26 0 10 -4 19
-8 19 -4 0 -26 30 -47 67 -22 36 -48 78 -57 92 -10 14 -21 33 -25 41 -4 8 -23
42 -43 75 -20 33 -40 67 -44 75 -17 35 -36 64 -36 55 0 -5 -12 14 -26 43 -13
28 -29 52 -33 52 -5 0 -11 10 -15 23 -3 13 -17 36 -31 51 -14 15 -25 31 -25
36 0 5 -17 38 -38 72 -21 35 -41 70 -45 78 -8 17 -30 53 -37 60 -7 7 -25 37
-55 90 -14 25 -34 59 -45 75 -11 17 -23 38 -26 48 -4 9 -10 17 -13 17 -4 0
-18 21 -32 46 -13 25 -29 53 -34 62 -6 10 -23 40 -40 67 -16 28 -35 54 -42 58
-7 4 -13 17 -13 27 0 11 -4 20 -10 20 -5 0 -10 6 -10 14 0 7 -7 19 -15 26 -8
7 -15 20 -15 30 0 10 -7 20 -15 24 -8 3 -15 12 -15 21 0 8 -4 15 -9 15 -4 0
-23 30 -41 68 -19 37 -38 72 -44 78 -6 6 -20 27 -31 47 -11 20 -23 37 -27 37
-5 0 -8 6 -8 13 0 8 -13 33 -30 55 -16 23 -30 46 -30 51 0 5 -19 38 -43 73
-23 35 -49 77 -57 93 -8 17 -21 34 -27 38 -7 4 -13 16 -13 26 0 11 -7 21 -15
25 -8 3 -15 15 -15 26 0 11 -4 20 -9 20 -5 0 -19 20 -31 45 -12 25 -26 45 -31
45 -5 0 -9 8 -9 19 0 10 -7 24 -15 31 -8 7 -15 17 -15 23 0 5 -11 25 -25 43
-14 18 -25 36 -25 39 0 4 -13 24 -30 45 -16 21 -30 45 -30 54 0 9 -4 16 -10
16 -5 0 -12 11 -16 25 -3 14 -10 25 -15 25 -5 0 -9 6 -9 14 0 8 -6 21 -13 28
-7 7 -16 20 -20 28 -4 8 -16 29 -27 45 -11 17 -23 38 -26 48 -4 9 -10 17 -15
17 -5 0 -9 6 -9 13 0 8 -12 32 -27 53 -16 22 -34 50 -41 62 -47 83 -72 135
-72 151 0 10 -7 21 -15 25 -9 3 -15 18 -15 39 0 19 -7 40 -15 47 -22 18 -20
121 3 147 9 11 26 22 36 24 22 5 133 0 164 -6z m2734 9 c14 -4 17 -12 11 -32
-3 -15 -9 -29 -13 -32 -3 -3 -17 -24 -30 -47 -13 -24 -27 -43 -32 -43 -4 0 -8
-9 -8 -20 0 -10 -6 -23 -12 -27 -15 -9 -36 -41 -44 -65 -4 -10 -10 -18 -15
-18 -5 0 -9 -6 -9 -13 0 -8 -13 -33 -30 -55 -16 -23 -30 -49 -30 -57 0 -8 -7
-15 -15 -15 -8 0 -15 -7 -15 -17 0 -9 -10 -30 -23 -47 -13 -17 -26 -39 -30
-48 -3 -10 -11 -18 -17 -18 -5 0 -10 -8 -10 -19 0 -10 -6 -24 -14 -30 -8 -7
-22 -26 -31 -44 -9 -18 -25 -45 -35 -62 -11 -16 -23 -37 -27 -45 -3 -8 -12
-19 -20 -23 -7 -4 -13 -12 -13 -18 0 -5 -12 -28 -27 -52 -15 -23 -32 -49 -38
-58 -5 -9 -23 -40 -40 -69 -16 -29 -38 -61 -47 -71 -10 -11 -18 -26 -18 -34 0
-8 -4 -15 -8 -15 -5 0 -19 -20 -31 -45 -12 -25 -27 -45 -32 -45 -5 0 -9 -7 -9
-16 0 -8 -11 -30 -25 -48 -14 -18 -25 -36 -25 -40 0 -7 -40 -66 -51 -76 -3 -3
-9 -12 -12 -20 -4 -8 -16 -28 -27 -45 -11 -16 -23 -38 -26 -47 -4 -10 -10 -18
-14 -18 -4 0 -11 -8 -14 -17 -7 -19 -12 -28 -59 -100 -15 -24 -27 -47 -27 -53
0 -5 -3 -10 -7 -10 -5 0 -19 -18 -33 -40 -13 -22 -29 -40 -35 -40 -14 0 -50
44 -75 95 -6 11 -19 34 -30 50 -11 17 -23 38 -26 48 -4 9 -10 17 -13 17 -4 0
-18 20 -30 45 -12 25 -26 45 -30 45 -4 0 -17 19 -30 43 -24 47 -43 80 -51 87
-3 3 -14 22 -25 44 -11 21 -26 40 -32 43 -7 3 -13 13 -13 23 0 10 -7 23 -15
30 -8 7 -15 19 -15 26 0 8 -5 14 -10 14 -6 0 -14 8 -17 18 -4 9 -14 28 -23 42
-53 78 -90 140 -90 149 0 6 -4 11 -10 11 -5 0 -12 11 -16 25 -3 14 -9 25 -13
25 -3 0 -15 17 -26 38 -11 20 -25 41 -32 45 -7 4 -13 15 -13 24 0 8 -13 32
-30 53 -16 21 -30 42 -30 48 0 5 -6 15 -14 21 -8 7 -22 26 -31 44 -9 18 -25
46 -35 62 -11 17 -23 37 -27 45 -3 8 -9 17 -13 20 -10 8 -70 110 -70 119 0 5
-7 11 -15 15 -8 3 -15 14 -15 25 0 11 -5 21 -11 23 -12 4 -50 64 -69 106 -5
12 -14 22 -20 22 -5 0 -10 8 -10 19 0 10 -7 24 -15 31 -8 7 -15 17 -15 22 0 5
-7 16 -15 24 -21 21 -19 62 2 66 31 6 2117 8 2135 2z m2332 -7 c17 -13 16 -15
-13 -47 -17 -19 -31 -42 -31 -52 0 -10 -5 -18 -10 -18 -11 0 -35 -49 -31 -63
1 -5 -2 -6 -7 -3 -5 3 -15 -7 -23 -22 -8 -15 -26 -46 -41 -68 -16 -23 -28 -45
-28 -49 0 -4 -13 -24 -30 -45 -16 -21 -30 -43 -30 -49 0 -6 -4 -11 -9 -11 -5
0 -11 -8 -15 -17 -3 -10 -15 -31 -26 -48 -11 -16 -23 -37 -27 -45 -10 -23 -67
-105 -75 -108 -5 -2 -8 -10 -8 -17 0 -7 -18 -40 -40 -73 -22 -33 -40 -63 -40
-66 0 -7 -12 -23 -42 -57 -10 -10 -18 -24 -18 -30 0 -6 -11 -25 -25 -43 -14
-18 -25 -38 -25 -44 0 -6 -6 -17 -12 -24 -23 -24 -73 -102 -91 -140 -10 -21
-22 -38 -26 -38 -5 0 -12 -11 -15 -25 -4 -14 -11 -25 -16 -25 -6 0 -10 -4 -10
-9 0 -6 -13 -30 -30 -54 -16 -25 -30 -48 -30 -51 0 -4 -5 -12 -10 -19 -15 -17
-130 -197 -130 -203 0 -5 -12 -20 -37 -49 -7 -7 -13 -18 -13 -24 0 -5 -21 -40
-47 -78 -25 -37 -46 -70 -46 -73 0 -15 -22 -37 -34 -33 -9 3 -13 -3 -13 -20 0
-23 -29 -75 -111 -195 -16 -23 -29 -47 -29 -53 0 -6 -14 -29 -31 -50 -17 -21
-28 -39 -24 -39 4 0 -6 -17 -22 -38 -30 -40 -35 -48 -84 -132 -18 -30 -45 -71
-60 -90 -16 -19 -29 -40 -29 -48 0 -7 -9 -22 -20 -34 -11 -12 -26 -34 -32 -50
-7 -15 -16 -28 -20 -28 -5 0 -8 -4 -8 -9 0 -5 -18 -37 -40 -70 -22 -33 -40
-63 -40 -66 0 -8 -44 -69 -52 -73 -5 -2 -8 -12 -8 -23 0 -10 -5 -19 -10 -19
-6 0 -15 -10 -20 -22 -6 -13 -19 -36 -30 -53 -11 -16 -23 -37 -27 -45 -4 -8
-23 -37 -43 -65 -20 -27 -39 -57 -43 -65 -7 -16 -17 -32 -59 -97 -16 -23 -28
-46 -28 -52 0 -6 -4 -11 -9 -11 -5 0 -12 -8 -15 -18 -13 -32 -31 -62 -38 -62
-5 0 -8 -7 -8 -15 0 -8 -9 -23 -20 -32 -11 -10 -20 -22 -20 -27 0 -5 -10 -23
-23 -40 -12 -17 -31 -48 -42 -68 -21 -42 -56 -63 -74 -45 -6 6 -11 17 -11 24
0 7 -4 13 -10 13 -5 0 -12 11 -16 25 -3 14 -10 25 -15 25 -4 0 -15 16 -24 35
-9 19 -23 39 -31 46 -8 6 -14 17 -14 25 0 7 -6 19 -12 26 -16 18 -33 44 -54
86 -10 19 -23 36 -31 39 -7 3 -13 13 -13 23 0 10 -7 23 -15 30 -8 7 -15 19
-15 27 0 7 -7 16 -15 19 -8 4 -15 15 -15 25 0 10 -4 19 -10 19 -5 0 -10 5 -10
11 0 6 -13 28 -30 49 -16 21 -30 43 -30 49 0 11 -6 20 -40 60 -8 10 -16 23
-18 30 -1 7 -9 20 -17 28 -8 8 -15 21 -15 29 0 8 -4 14 -10 14 -5 0 -10 5 -10
10 0 6 -13 29 -30 52 -16 22 -30 47 -30 55 0 7 -4 13 -9 13 -5 0 -20 20 -32
45 -12 25 -26 45 -31 45 -4 0 -8 7 -8 15 0 9 -7 18 -15 21 -8 4 -15 14 -15 24
0 10 -7 23 -15 30 -8 7 -15 19 -15 26 0 8 -4 14 -9 14 -5 0 -13 10 -17 22 -3
12 -17 33 -30 47 -13 14 -24 33 -24 43 0 9 -3 18 -7 20 -10 4 -53 65 -53 74 0
3 -10 20 -22 37 -31 42 -46 69 -54 90 -3 9 -10 17 -14 17 -5 0 -12 10 -16 23
-4 12 -17 36 -30 53 -13 17 -24 36 -24 43 0 6 -7 14 -15 17 -8 4 -15 12 -15
19 0 7 -16 36 -35 65 -19 29 -35 55 -35 59 1 32 4 32 1104 31 l1087 0 -7 22
c-4 13 -15 35 -25 50 -11 16 -28 41 -39 58 -11 16 -20 34 -20 40 0 6 -7 13
-15 16 -8 4 -15 16 -15 29 0 13 -7 25 -15 29 -8 3 -15 12 -15 21 0 8 -4 15 -9
15 -5 0 -13 10 -17 23 -4 12 -10 24 -13 27 -15 11 -71 102 -71 115 0 7 -4 15
-8 17 -7 2 -70 101 -125 193 -7 11 -23 36 -37 55 -14 19 -32 49 -40 65 -8 17
-27 48 -42 69 -16 21 -28 43 -28 48 0 8 -8 20 -37 53 -7 7 -13 21 -13 29 0 9
-3 16 -7 16 -5 0 -21 23 -36 50 -16 28 -32 50 -38 50 -5 0 -9 9 -9 19 0 10 -7
21 -15 25 -8 3 -14 9 -13 13 2 4 -8 26 -21 48 -14 22 -33 56 -44 75 -11 19
-23 37 -27 40 -4 3 -10 15 -14 28 -4 12 -12 22 -17 22 -5 0 -9 7 -9 15 0 8 -4
15 -9 15 -5 0 -13 9 -16 21 -8 25 -66 113 -77 117 -4 2 -8 9 -8 15 0 6 -19 40
-42 77 -61 93 -66 101 -84 137 -36 68 -124 63 1109 63 905 0 1117 -2 1131 -13z
m651 -57 c31 -49 32 -90 2 -138 -13 -20 -27 -44 -30 -52 -4 -8 -16 -28 -27
-45 -11 -16 -24 -39 -30 -50 -6 -11 -22 -38 -35 -60 -14 -22 -32 -55 -40 -72
-9 -18 -19 -33 -24 -33 -5 0 -11 -8 -15 -17 -3 -10 -20 -40 -36 -68 -16 -27
-36 -63 -44 -80 -8 -16 -24 -40 -35 -52 -12 -12 -21 -28 -21 -36 0 -8 -12 -32
-28 -53 -15 -21 -34 -52 -42 -69 -8 -16 -21 -34 -27 -38 -7 -4 -13 -17 -13
-28 0 -11 -7 -22 -15 -25 -8 -4 -15 -14 -15 -24 0 -10 -7 -23 -15 -30 -8 -7
-15 -19 -15 -26 0 -8 -4 -14 -10 -14 -5 0 -12 -11 -16 -25 -3 -14 -10 -25 -15
-25 -5 0 -9 -6 -9 -14 0 -7 -7 -19 -15 -26 -8 -7 -15 -21 -15 -30 0 -10 -4
-20 -8 -22 -9 -3 -65 -94 -75 -120 -3 -10 -11 -18 -17 -18 -5 0 -10 -8 -10
-19 0 -10 -7 -24 -15 -31 -8 -7 -15 -17 -15 -23 0 -5 -11 -25 -25 -43 -14 -18
-25 -40 -25 -48 0 -9 -5 -16 -11 -16 -5 0 -15 -13 -20 -30 -6 -16 -15 -30 -20
-30 -5 0 -9 -6 -9 -14 0 -8 -16 -38 -36 -67 -20 -30 -41 -66 -46 -81 -6 -16
-14 -28 -19 -28 -5 0 -9 -6 -9 -14 0 -7 -7 -19 -15 -26 -8 -7 -15 -21 -15 -31
0 -11 -3 -19 -7 -19 -9 0 -47 -62 -45 -72 1 -3 -5 -12 -13 -18 -8 -7 -15 -16
-15 -20 0 -4 -18 -35 -40 -68 -22 -33 -40 -66 -40 -75 0 -8 -7 -20 -15 -27 -8
-7 -15 -19 -15 -27 0 -7 -7 -16 -15 -19 -8 -4 -15 -12 -15 -19 0 -7 -7 -18
-15 -25 -8 -7 -15 -21 -15 -31 0 -11 -4 -19 -10 -19 -5 0 -10 -4 -10 -10 0
-10 -59 -111 -70 -120 -4 -3 -24 -36 -45 -75 -20 -38 -48 -84 -61 -102 -13
-17 -24 -38 -24 -46 0 -8 -7 -20 -15 -27 -8 -7 -15 -16 -15 -21 0 -11 -62
-103 -72 -107 -5 -2 -8 -10 -8 -18 0 -13 -26 -60 -91 -164 -16 -25 -33 -50
-39 -57 -5 -7 -10 -19 -10 -27 0 -8 -4 -17 -9 -21 -6 -3 -20 -26 -32 -50 -12
-25 -26 -45 -30 -45 -4 0 -10 -11 -13 -25 -4 -14 -11 -25 -16 -25 -6 0 -10 -6
-10 -14 0 -8 -6 -21 -12 -28 -16 -17 -35 -46 -48 -73 -5 -11 -23 -42 -40 -70
-16 -27 -34 -60 -39 -72 -5 -11 -15 -24 -20 -28 -6 -3 -11 -13 -11 -21 0 -14
-7 -24 -37 -59 -7 -7 -13 -21 -13 -30 0 -8 -7 -18 -15 -21 -8 -4 -15 -13 -15
-22 0 -8 -10 -29 -23 -46 -13 -17 -34 -51 -46 -76 -13 -25 -26 -47 -30 -50 -9
-7 -29 -41 -41 -68 -5 -12 -14 -22 -20 -22 -5 0 -10 -8 -10 -19 0 -10 -7 -24
-15 -31 -8 -7 -15 -19 -15 -27 0 -8 -11 -29 -25 -47 -14 -18 -25 -38 -25 -44
0 -6 -6 -15 -12 -19 -7 -4 -24 -30 -38 -57 -40 -80 -44 -86 -53 -86 -4 0 -6
-4 -3 -9 9 -14 -42 0 -55 15 -6 8 -15 14 -20 14 -10 0 -89 79 -89 88 0 4 -12
20 -26 35 -35 38 -36 85 -2 128 14 19 28 44 32 57 4 12 12 22 17 22 5 0 9 5 9
12 0 10 56 105 70 118 3 3 14 21 24 40 10 19 31 53 45 75 14 22 35 57 46 78
11 20 23 37 27 37 5 0 8 5 8 11 0 6 11 25 25 43 14 18 25 36 25 39 0 3 12 23
26 44 14 21 30 47 35 58 5 11 18 34 29 50 11 17 23 38 26 48 4 9 10 17 15 17
5 0 9 4 9 10 0 5 17 36 38 69 20 33 60 96 87 141 28 45 56 88 63 95 6 7 12 19
12 25 0 6 11 26 25 44 14 18 25 38 25 44 0 6 6 17 13 24 13 15 11 12 97 151
33 54 60 102 60 108 0 5 7 12 15 15 8 4 15 12 15 19 0 7 7 18 15 25 8 7 15 21
15 30 0 10 3 20 8 22 8 3 57 77 83 123 36 67 45 82 69 114 32 45 79 121 86
144 4 9 10 17 14 17 4 0 11 11 14 25 4 14 11 25 16 25 6 0 10 9 10 20 0 11 7
23 15 26 8 4 15 13 15 20 0 8 7 17 15 20 8 4 15 13 15 20 0 8 9 28 20 44 11
17 29 43 40 60 11 16 20 36 20 45 0 8 7 15 15 15 8 0 15 8 15 19 0 10 7 24 15
31 8 7 15 16 15 21 0 11 62 103 73 107 4 2 7 12 7 23 0 10 4 19 10 19 5 0 19
19 30 43 25 51 37 71 73 118 15 20 27 44 27 52 0 8 7 17 15 21 8 3 15 15 15
26 0 11 4 20 8 20 5 0 19 19 31 43 12 23 44 76 71 117 27 41 57 91 67 110 9
19 22 38 29 42 6 4 15 19 18 33 4 14 11 25 16 25 6 0 10 6 10 14 0 8 3 16 8
18 4 2 18 24 32 51 13 26 28 47 32 47 5 0 8 5 8 11 0 6 14 31 30 56 17 24 30
47 30 50 0 3 10 20 23 37 13 17 27 38 30 46 4 8 16 29 27 45 11 17 23 37 27
45 3 8 17 29 30 46 13 17 23 36 23 41 0 6 7 16 15 23 8 7 15 21 15 31 0 11 5
19 10 19 6 0 13 8 17 18 3 9 12 24 19 32 6 8 25 38 41 65 71 125 59 115 140
115 l73 0 25 -40z m-2915 -118 c33 -40 60 -82 60 -92 0 -5 5 -10 10 -10 6 0
10 -5 10 -11 0 -6 14 -31 30 -56 17 -24 30 -48 30 -54 0 -5 4 -9 8 -9 5 0 19
-20 31 -45 12 -25 27 -45 32 -45 5 0 9 -9 9 -20 0 -11 4 -20 9 -20 5 0 12 -9
16 -20 3 -11 24 -46 46 -79 21 -32 39 -63 39 -69 0 -5 7 -12 15 -16 8 -3 15
-15 15 -26 0 -11 4 -20 8 -20 9 0 42 -53 42 -68 0 -19 -38 -24 -201 -25 -179
-2 -183 -1 -172 66 l6 37 -67 0 -66 0 0 -37 c0 -64 -1 -64 -174 -65 -200 0
-206 3 -153 92 21 34 37 66 37 71 0 5 5 9 10 9 6 0 10 6 10 14 0 8 6 21 13 28
7 7 22 29 33 48 10 19 23 38 27 41 9 7 19 22 56 93 14 25 28 46 33 46 4 0 8 4
8 9 0 6 14 30 30 54 17 25 30 48 30 51 0 15 93 146 104 146 6 0 18 -8 26 -18z
m484 -768 c9 -3 16 -14 16 -24 0 -10 7 -23 15 -30 8 -7 15 -19 15 -26 0 -8 4
-14 8 -14 5 0 17 -18 28 -40 10 -22 21 -40 24 -40 3 0 17 -21 30 -47 14 -26
33 -56 43 -68 10 -11 20 -29 23 -42 3 -12 12 -24 20 -27 8 -3 14 -15 14 -26 0
-11 5 -20 10 -20 6 0 10 -6 10 -14 0 -8 8 -21 18 -28 9 -7 31 -39 47 -72 17
-32 36 -61 43 -63 6 -3 12 -13 12 -23 0 -10 7 -23 15 -30 8 -7 15 -19 15 -26
0 -8 4 -14 9 -14 5 0 12 -11 15 -25 4 -14 11 -25 16 -25 6 0 10 -7 10 -15 0
-9 7 -18 16 -22 14 -5 12 -8 -7 -19 -35 -20 -1921 -20 -1937 -1 -13 15 5 53
69 150 22 32 39 64 39 72 0 7 4 15 8 17 14 6 72 96 72 112 0 9 4 16 9 16 7 0
71 95 71 107 0 2 9 16 20 30 11 14 18 29 15 33 -3 4 2 10 10 14 8 3 15 12 15
20 0 8 4 16 8 18 10 4 72 105 72 118 0 6 4 10 9 10 5 0 18 16 30 35 l20 35
495 0 c272 0 501 -3 510 -6z"/>
<path d="M3564 4851 c-2 -2 -4 -42 -4 -88 l0 -83 309 0 c272 0 310 2 315 16 8
22 7 137 -2 149 -7 10 -608 15 -618 6z m502 -83 c-2 -40 -35 -46 -210 -41
-166 5 -196 13 -183 47 6 14 33 16 200 16 l194 0 -1 -22z"/>
<path d="M3405 4605 c-14 -11 -28 -385 -15 -385 4 0 7 -8 6 -17 -1 -15 8 -19
47 -21 l47 -3 0 168 c0 118 4 173 12 181 17 17 719 17 736 0 8 -8 12 -46 12
-105 0 -87 -2 -96 -25 -117 -14 -13 -40 -26 -57 -30 -28 -5 -30 -8 -15 -19 10
-6 21 -26 25 -42 10 -38 37 -43 109 -20 38 12 57 24 63 40 10 28 13 356 3 370
-5 6 -174 10 -472 10 -294 0 -469 -4 -476 -10z"/>
<path d="M3620 4360 l0 -130 62 3 c48 2 64 7 66 19 4 21 32 28 124 28 54 0 85
-5 106 -17 24 -14 38 -15 78 -7 42 8 49 12 48 32 0 12 -1 63 -2 112 l-2 90
-240 0 -240 0 0 -130z m355 20 l0 -45 -110 0 -109 0 -8 39 c-6 29 -5 42 4 48
7 4 60 7 118 6 l105 -3 0 -45z"/>
</g>
</svg>
