<?xml version="1.0" standalone="no"?>
<!DOCTYPE svg PUBLIC "-//W3C//DTD SVG 20010904//EN"
 "http://www.w3.org/TR/2001/REC-SVG-20010904/DTD/svg10.dtd">
<svg version="1.0" xmlns="http://www.w3.org/2000/svg"
 width="761.000000pt" height="761.000000pt" viewBox="0 0 761.000000 761.000000"
 preserveAspectRatio="xMidYMid meet">

<g transform="translate(0.000000,761.000000) scale(0.100000,-0.100000)"
fill="#000000" stroke="none">
<path d="M4275 5972 c-65 -16 -94 -26 -138 -48 -16 -8 -35 -14 -43 -14 -8 0
-14 -5 -14 -11 0 -5 -13 -15 -30 -20 -16 -6 -30 -15 -30 -20 0 -5 -6 -9 -12
-9 -12 -1 -88 -65 -88 -74 0 -2 -16 -21 -36 -42 -19 -22 -44 -58 -55 -81 -10
-23 -23 -45 -29 -48 -5 -3 -10 -16 -10 -29 0 -12 -7 -31 -15 -42 -8 -10 -15
-33 -15 -50 0 -16 -6 -38 -14 -49 -11 -16 -20 -17 -72 -10 -94 14 -442 9 -469
-7 -6 -2 -23 -4 -40 -4 -28 1 -30 4 -37 49 -17 124 -163 335 -267 388 -14 8
-40 24 -57 36 -47 35 -170 73 -254 79 -41 3 -77 7 -80 9 -3 2 -25 -1 -50 -6
-25 -5 -58 -11 -75 -14 -69 -11 -242 -91 -253 -117 -2 -4 -19 -15 -37 -24 -44
-20 -146 -122 -178 -176 -67 -117 -101 -252 -93 -378 8 -136 22 -189 79 -302
l53 -106 -38 -59 c-21 -32 -41 -67 -44 -78 -3 -11 -14 -42 -24 -70 -30 -81
-72 -220 -69 -230 1 -6 -3 -30 -11 -55 -24 -85 -20 -381 7 -450 3 -8 5 -22 4
-32 -1 -9 3 -19 9 -23 5 -3 10 -15 10 -26 0 -10 4 -27 10 -37 5 -9 20 -45 34
-80 39 -101 115 -217 198 -304 43 -44 78 -85 78 -90 0 -6 -14 -8 -32 -4 -47 8
-534 10 -547 2 -6 -4 -17 -4 -23 1 -18 11 -314 4 -363 -8 -22 -6 -51 -13 -64
-16 -36 -9 -88 -67 -95 -107 -12 -66 -4 -228 15 -296 41 -148 61 -228 70 -279
5 -29 14 -62 19 -72 6 -10 11 -31 12 -46 1 -15 5 -32 9 -38 4 -5 10 -30 14
-55 4 -25 14 -70 22 -100 8 -30 32 -123 53 -207 54 -209 86 -281 140 -315 35
-22 257 -48 415 -49 721 -4 1706 -2 1940 4 297 7 323 8 530 27 66 5 180 15
254 20 158 12 183 21 195 73 l10 37 98 2 c54 1 113 2 131 2 30 1 32 -1 35 -39
5 -80 34 -165 64 -190 48 -41 92 -49 282 -50 326 -3 392 29 401 200 2 42 5 79
7 81 6 5 231 14 528 19 337 7 441 12 453 24 21 21 -2 38 -60 44 -68 6 -251 4
-273 -3 -19 -6 -23 38 -8 94 15 58 11 169 -8 225 -18 55 -58 93 -120 114 -35
11 -77 61 -68 79 3 4 -11 40 -30 80 -52 113 -64 150 -60 188 12 107 4 362 -15
475 -22 134 -54 247 -76 269 -8 8 -15 21 -15 28 -1 20 -69 108 -84 108 -8 0
-16 6 -19 14 -3 8 -34 33 -68 55 -65 43 -92 79 -83 115 7 29 -29 61 -81 72
-22 4 -76 8 -120 9 -99 3 -127 -11 -118 -55 l6 -30 -72 0 c-39 0 -71 4 -71 9
0 5 6 24 14 42 8 19 17 61 21 94 4 33 11 65 15 70 14 18 4 295 -13 360 -8 33
-18 80 -22 105 -4 25 -10 50 -14 55 -4 6 -13 30 -20 55 -11 41 -48 127 -88
205 -9 17 -29 47 -45 68 l-30 39 30 41 c16 23 44 85 63 137 31 88 34 104 34
216 0 86 -4 125 -13 137 -8 9 -11 20 -8 25 13 21 -81 218 -110 229 -8 3 -14
10 -14 17 0 6 -15 25 -33 43 -83 82 -87 85 -194 137 -60 30 -102 48 -123 52
-8 2 -37 8 -65 14 -79 18 -251 19 -320 2z m301 -66 c61 -9 180 -53 224 -85 25
-17 56 -39 70 -49 64 -45 154 -163 176 -232 9 -30 21 -60 26 -66 11 -16 19
-255 9 -269 -5 -5 -12 -28 -15 -50 -6 -34 -29 -89 -67 -167 -5 -10 -9 -27 -9
-38 0 -11 -4 -20 -10 -20 -29 0 18 -105 62 -138 10 -7 18 -19 18 -27 0 -8 7
-29 15 -47 8 -18 25 -62 38 -98 14 -36 28 -74 32 -85 5 -11 10 -29 12 -40 2
-11 8 -31 13 -45 5 -14 12 -45 14 -70 3 -25 8 -67 11 -95 11 -76 11 -83 2
-190 -13 -145 -49 -273 -108 -375 -5 -8 -15 -26 -21 -40 -45 -91 -206 -266
-278 -302 -19 -10 -55 -31 -80 -47 -77 -50 -146 -80 -365 -161 -27 -10 -81
-26 -120 -35 -88 -22 -82 -20 -130 -30 -22 -4 -49 -12 -60 -18 -11 -6 -38 -12
-60 -13 -22 0 -74 -6 -115 -12 -121 -19 -401 -34 -418 -23 -6 3 -19 29 -30 57
-27 71 -76 140 -123 171 -35 23 -51 26 -152 29 -231 8 -479 13 -697 16 l-225
2 -56 43 c-31 23 -67 54 -80 69 -13 14 -35 38 -49 53 -76 78 -181 267 -201
360 -6 28 -15 53 -20 57 -5 3 -7 9 -4 14 3 5 2 18 -3 27 -22 41 -30 249 -13
338 5 27 8 53 5 56 -12 20 75 316 103 351 6 7 24 40 41 74 17 33 37 66 46 73
22 19 20 54 -5 77 -24 21 -103 181 -114 229 -29 129 -9 301 48 414 46 92 206
261 248 261 5 0 34 13 65 30 121 64 281 79 434 40 24 -6 49 -15 55 -19 5 -5
36 -22 67 -40 76 -42 176 -143 215 -216 17 -33 40 -90 52 -127 l20 -68 -29
-32 c-17 -18 -30 -35 -30 -39 0 -15 56 -16 114 -2 136 32 343 43 521 27 78 -7
105 -24 105 -64 0 -31 32 -65 54 -57 10 4 13 19 10 54 -13 179 63 359 200 470
23 19 50 42 61 51 30 27 181 84 245 93 51 7 185 4 256 -5z m1006 -2084 c4 -4
15 -38 26 -77 30 -108 72 -248 79 -265 3 -8 6 -18 5 -21 -1 -4 15 -51 34 -105
20 -55 38 -110 41 -124 3 -14 9 -29 13 -35 4 -5 10 -25 14 -43 3 -19 12 -48
19 -65 27 -63 57 -143 57 -152 0 -6 6 -21 13 -35 7 -14 19 -47 27 -75 7 -27
16 -54 19 -60 4 -5 13 -28 20 -50 7 -22 19 -53 26 -70 8 -16 30 -70 50 -120
20 -49 42 -97 49 -105 7 -8 17 -27 24 -42 8 -20 19 -28 37 -28 43 0 84 -28
101 -68 12 -30 14 -59 9 -152 -4 -63 -8 -122 -11 -130 -3 -12 -26 -15 -131
-15 l-128 0 4 65 c2 35 7 73 10 84 10 26 -10 109 -31 130 -10 10 -18 24 -18
32 0 8 -4 22 -9 32 -5 9 -24 53 -41 97 -17 44 -35 89 -40 100 -5 11 -24 61
-43 110 -19 50 -46 119 -60 155 -14 36 -38 101 -53 145 -15 44 -30 85 -34 90
-4 6 -15 37 -25 70 -9 33 -25 83 -35 110 -10 28 -25 73 -34 100 -9 28 -27 82
-40 120 -12 39 -33 106 -45 150 -13 44 -28 92 -33 106 -15 42 -37 143 -32 150
5 9 156 0 166 -9z m-237 -86 c0 0 6 -11 13 -23 6 -13 12 -32 12 -42 0 -26 49
-183 61 -196 5 -5 9 -16 9 -25 0 -26 96 -315 135 -405 7 -16 23 -64 35 -105
12 -41 30 -93 40 -115 9 -22 23 -56 30 -75 15 -44 30 -80 41 -102 5 -10 9 -22
9 -28 0 -13 95 -252 115 -289 58 -110 67 -141 61 -206 -3 -35 -8 -82 -12 -104
l-6 -40 -105 2 -105 2 -3 312 c-2 171 -6 316 -9 322 -4 6 -2 20 4 31 12 23 -9
73 -38 89 -27 14 -183 41 -239 41 l-50 0 -7 49 c-6 47 -19 70 -114 214 -41 62
-200 205 -277 250 -38 22 -72 42 -74 44 -3 2 6 11 20 20 37 26 157 152 192
203 17 25 47 74 67 110 35 64 36 65 85 71 40 5 110 2 110 -5z m414 -116 c6 0
11 -3 11 -7 0 -5 15 -24 33 -43 18 -19 36 -42 40 -50 4 -8 11 -22 16 -30 52
-89 88 -255 95 -435 5 -143 4 -148 -10 -105 -8 25 -19 54 -24 65 -4 11 -18 54
-31 95 -12 41 -26 82 -30 90 -17 36 -49 126 -49 137 0 7 -17 65 -38 130 -22
65 -42 134 -45 153 -6 31 -5 33 7 18 7 -10 18 -18 25 -18z m-908 -361 c129
-65 327 -262 381 -379 41 -90 43 -100 16 -99 -38 1 -171 -10 -203 -18 -16 -3
-37 -7 -45 -8 -43 -6 -71 -19 -86 -43 -18 -28 -18 -6 -9 -479 2 -145 1 -263
-3 -264 -4 0 -54 -2 -112 -3 -58 -1 -109 -4 -115 -5 -5 -2 -14 -2 -20 0 -5 1
-32 3 -60 4 -418 11 -531 18 -542 32 -7 9 -15 36 -18 62 -3 25 -17 105 -31
176 -56 281 -62 398 -23 425 42 28 295 88 384 91 41 1 153 -15 215 -32 19 -5
58 -11 85 -12 48 -2 50 -1 53 25 3 23 -2 30 -34 43 -20 8 -62 18 -93 21 -31 3
-63 8 -71 11 -21 6 28 26 131 52 101 25 123 49 66 70 -28 11 -129 -3 -170 -22
-18 -8 -54 -25 -82 -37 -27 -13 -53 -27 -57 -33 -3 -6 -28 -12 -55 -13 -116
-7 -302 -44 -339 -69 -27 -17 -54 -20 -54 -4 0 6 14 30 30 54 17 24 30 46 30
48 0 2 20 38 45 79 25 42 45 80 45 85 0 5 26 16 58 23 97 22 167 42 176 51 6
5 20 9 32 9 13 0 25 4 28 9 3 4 21 11 40 14 19 3 52 13 73 22 94 42 200 96
223 115 32 25 61 25 111 -1z m-2526 -14 c386 -6 757 -13 846 -14 36 -1 56 -8
90 -35 24 -18 50 -46 58 -62 35 -77 41 -92 51 -135 5 -26 15 -59 21 -75 6 -16
12 -40 14 -54 4 -25 19 -103 30 -150 16 -73 26 -120 35 -170 5 -30 16 -84 25
-120 8 -36 17 -78 19 -95 5 -35 28 -127 51 -205 9 -30 18 -72 20 -92 2 -20 12
-54 22 -74 l18 -38 130 4 c145 4 500 1 585 -5 30 -2 97 -4 149 -5 l93 0 -7
-27 c-4 -16 -8 -29 -9 -31 -2 -1 -34 -5 -72 -8 -38 -3 -76 -7 -83 -10 -8 -3
-56 -7 -105 -10 -50 -3 -118 -7 -151 -10 -33 -3 -69 -5 -80 -5 -11 0 -70 -5
-130 -10 -61 -6 -225 -12 -365 -15 -140 -3 -259 -5 -265 -5 -11 -1 -908 -1
-940 -1 -859 10 -1020 21 -1055 73 -22 33 -60 131 -54 141 3 4 -1 22 -9 40
-13 31 -19 53 -48 193 -6 28 -15 54 -20 60 -5 5 -9 26 -9 46 0 21 -4 40 -9 43
-5 3 -12 27 -16 53 -4 27 -13 62 -20 78 -7 17 -13 37 -13 45 0 8 -5 35 -12 60
-16 63 -30 118 -40 165 -5 22 -14 60 -20 85 -6 25 -17 87 -24 139 -14 97 -5
171 24 206 34 41 252 46 1275 30z m1684 -258 c-31 -59 -96 -165 -116 -190 -13
-16 -23 -33 -23 -38 0 -13 -48 -63 -81 -83 -23 -15 -28 -15 -39 -1 -7 8 -16
15 -21 15 -11 0 -126 84 -157 115 l-23 24 23 21 c13 12 48 46 78 75 l55 53
102 7 c56 4 124 13 150 19 57 15 67 12 52 -17z m-429 -24 c3 -3 -12 -20 -33
-39 -32 -30 -39 -33 -57 -22 -25 16 -38 57 -20 68 12 7 100 2 110 -7z m-10
-253 c3 -3 35 -26 72 -50 69 -46 77 -59 55 -82 -18 -19 -37 -65 -42 -101 -13
-104 -14 -128 -5 -182 19 -119 37 -181 69 -234 18 -29 30 -55 28 -58 -2 -2
-23 -1 -45 3 -41 6 -41 7 -52 63 -6 31 -18 83 -26 116 -8 33 -17 74 -19 92 -2
18 -7 38 -11 44 -4 7 -9 24 -10 38 -5 53 -14 104 -21 115 -4 6 -6 19 -4 30 1
10 -4 37 -12 60 -22 59 -38 161 -29 179 3 7 30 -10 52 -33z m1780 -21 c-35
-10 -110 -11 -110 -1 0 4 30 8 68 8 43 0 58 -2 42 -7z m63 4 c-7 -2 -19 -2
-25 0 -7 3 -2 5 12 5 14 0 19 -2 13 -5z m-205 -10 c-15 -2 -42 -2 -60 0 -18 2
-6 4 27 4 33 0 48 -2 33 -4z m-1327 -55 c0 -7 2 -56 5 -108 2 -52 9 -107 15
-123 6 -15 9 -30 7 -33 -3 -2 3 -44 13 -92 11 -48 21 -103 24 -122 2 -20 9
-48 14 -64 6 -15 11 -45 11 -67 0 -35 -3 -39 -25 -39 -72 0 -124 48 -181 166
-49 102 -67 234 -40 302 10 26 23 61 29 77 11 29 98 115 117 115 6 0 10 -6 11
-12z m1449 -113 c35 -18 37 -28 11 -64 -29 -40 -34 -90 -22 -185 10 -75 10
-90 -5 -118 -11 -22 -18 -59 -19 -110 0 -43 -6 -83 -12 -89 -16 -16 -43 113
-33 156 4 19 6 35 4 37 -1 2 -8 49 -13 105 -17 165 -44 224 -65 140 -7 -27 -5
-44 6 -68 12 -24 13 -39 6 -63 -6 -17 -13 -65 -17 -106 l-7 -75 -19 40 c-11
23 -19 63 -20 95 0 39 -6 64 -21 85 -32 46 -34 61 -18 107 14 41 14 43 -8 59
-18 14 -20 20 -9 33 20 24 48 28 80 12 40 -21 64 -20 103 4 40 24 41 24 78 5z
m160 -31 c22 -20 40 -43 40 -51 0 -7 -10 -32 -21 -55 -17 -33 -20 -53 -16 -91
6 -44 -22 -199 -37 -215 -8 -7 -26 45 -26 72 0 13 6 41 14 63 13 37 12 43 -10
88 -18 38 -22 59 -17 92 l6 43 -32 -6 c-20 -4 -31 -3 -31 5 0 13 69 91 81 91
5 0 27 -16 49 -36z m91 -594 c12 -7 19 -21 19 -41 0 -35 -27 -51 -45 -25 -12
15 -13 15 -18 -4 -6 -24 -39 -27 -57 -5 -18 21 -30 19 -27 -6 3 -29 -23 -37
-30 -10 -5 21 -19 26 -47 15 -12 -5 -13 -10 -5 -26 6 -11 8 -26 5 -34 -8 -21
-36 -17 -36 5 0 28 -17 35 -25 11 -8 -24 -28 -26 -45 -5 -7 9 -21 13 -31 10
-22 -7 -31 7 -23 40 7 29 20 32 46 8 16 -14 21 -15 28 -3 9 14 25 20 75 25 17
2 45 8 64 14 19 6 38 8 43 5 5 -3 15 -1 23 6 9 7 15 8 20 0 11 -18 35 -11 35
10 0 23 4 24 31 10z m-536 -40 c5 -8 12 -7 22 1 12 10 19 10 35 0 15 -9 23 -9
33 -1 22 18 53 2 60 -31 7 -32 -7 -59 -31 -59 -18 0 -55 21 -70 39 -9 12 -13
12 -21 -3 -8 -15 -14 -16 -30 -8 -14 8 -23 8 -31 0 -9 -9 -12 -6 -12 14 0 15
3 33 6 42 7 18 30 21 39 6z"/>
<path d="M2395 4608 c-92 -23 -175 -51 -186 -64 -6 -8 -15 -12 -19 -9 -4 3
-13 -2 -20 -10 -7 -8 -17 -15 -23 -15 -13 0 -116 -96 -139 -130 -31 -44 -37
-54 -53 -91 -18 -40 -41 -117 -56 -189 -10 -44 -6 -171 7 -240 17 -88 70 -176
157 -261 134 -133 371 -191 590 -144 44 9 89 20 100 25 42 15 169 99 184 119
17 25 30 26 71 5 35 -17 113 -23 154 -11 21 5 28 3 33 -11 10 -35 71 -54 167
-53 65 0 115 21 127 54 14 35 -2 40 -76 23 -49 -11 -79 -12 -108 -6 -40 9 -75
40 -75 66 0 16 -33 18 -61 4 -22 -13 -96 -15 -128 -5 -17 5 -20 12 -15 28 3
12 12 29 18 37 22 26 56 122 56 154 0 29 4 34 48 49 35 13 70 16 140 13 51 -2
96 -6 99 -10 4 -3 17 -6 29 -6 52 0 71 -19 78 -77 7 -59 44 -147 85 -203 142
-192 402 -280 666 -225 84 17 140 40 215 87 118 75 226 238 236 359 2 30 7 78
10 107 6 57 -24 218 -52 270 -8 15 -14 30 -14 34 0 29 -118 166 -176 206 -39
26 -150 75 -179 78 -16 2 -50 8 -75 15 -84 20 -281 -4 -370 -46 -109 -51 -163
-92 -254 -195 -30 -33 -95 -228 -103 -307 -3 -29 -11 -53 -17 -53 -6 0 -31 7
-56 16 -47 16 -148 20 -237 8 l-53 -7 0 38 c0 46 -37 207 -56 243 -8 15 -14
32 -14 38 0 6 -9 19 -20 29 -11 10 -20 24 -20 31 0 18 -88 108 -137 141 -50
34 -141 74 -178 79 -16 2 -48 8 -70 13 -49 13 -176 12 -230 -1z m304 -85 c223
-75 330 -235 347 -518 5 -91 -40 -235 -74 -235 -27 0 -42 -20 -42 -56 0 -53
-103 -140 -187 -159 -18 -3 -33 -10 -33 -15 0 -4 -36 -13 -81 -20 -90 -14
-253 -9 -309 10 -114 39 -222 116 -274 195 -57 87 -80 166 -78 269 1 101 26
225 54 271 10 17 23 42 29 58 6 15 15 27 20 27 5 0 15 11 21 25 14 30 123 105
191 130 148 55 289 62 416 18z m1590 -29 c41 -14 92 -38 114 -52 22 -15 50
-34 63 -43 62 -41 147 -206 159 -309 11 -85 8 -183 -8 -245 -35 -143 -171
-295 -284 -320 -18 -3 -33 -10 -33 -15 0 -16 -162 -33 -259 -27 -106 7 -135
14 -229 60 -111 53 -207 168 -244 291 -15 52 -11 230 8 298 21 81 60 162 96
202 85 94 154 133 298 169 117 29 214 26 319 -9z"/>
<path d="M2696 3959 c-53 -42 -14 -113 49 -89 40 15 49 46 25 80 -25 35 -38
37 -74 9z"/>
<path d="M3900 4270 c-37 -19 -108 -50 -144 -62 -35 -12 -56 -38 -56 -69 0
-11 44 -12 68 -1 73 36 111 52 135 58 26 6 47 30 47 53 0 16 -33 30 -50 21z"/>
<path d="M3848 3969 c-12 -6 -18 -22 -18 -44 0 -58 69 -67 99 -14 12 23 12 28
-5 47 -20 24 -48 28 -76 11z"/>
</g>
</svg>
